<svg xmlns="http://www.w3.org/2000/svg" viewBox="0 0 63.628 63.628">
  <defs>
    <style>
      .cls-1 {
        fill: #fff;
      }
    </style>
  </defs>
  <path id="_1sti_logo" data-name="1sti_logo" class="cls-1" d="M31.814,0A31.814,31.814,0,1,0,63.628,31.814,31.814,31.814,0,0,0,31.814,0ZM17.084,19.639V45.09a.8.8,0,0,1-.276.639,1.022,1.022,0,0,1-.639.276H14.354a.936.936,0,0,1-.914-.914V21.455H10.434c-.639,0-.914-.276-.914-.914V18.725c0-.639.276-.914.914-.914h4.822a1.652,1.652,0,0,1,1.279.551A1.488,1.488,0,0,1,17.084,19.639ZM34.632,39.367a6.155,6.155,0,0,1-.551,2.543,7.18,7.18,0,0,1-3.547,3.544,6.205,6.205,0,0,1-5.085,0,7.18,7.18,0,0,1-3.544-3.544,6.155,6.155,0,0,1-.551-2.543V37.449c0-.639.276-.914.914-.914h1.816c.639,0,.914.276.914.914v1.9a2.9,2.9,0,0,0,.815,2.092,2.145,2.145,0,0,0,1.816.914,2.9,2.9,0,0,0,2.092-.815,3.008,3.008,0,0,0,.813-2.09v-.727c-.088-.088-.088-.188-.188-.276l-7.9-10.458a13.284,13.284,0,0,1-.815-1.09,5.616,5.616,0,0,1-.363-.727,1.839,1.839,0,0,1-.188-.727v-1.09a6.155,6.155,0,0,1,.551-2.543,7.18,7.18,0,0,1,3.549-3.545,6.205,6.205,0,0,1,5.085,0,7.18,7.18,0,0,1,3.54,3.548,6.155,6.155,0,0,1,.551,2.543v1.9c0,.639-.276.914-.914.914H31.626c-.639,0-.914-.276-.639-1V24.274a2.9,2.9,0,0,0-.815-2.092,3.008,3.008,0,0,0-2.092-.815,2.9,2.9,0,0,0-2.092.815,3.008,3.008,0,0,0-.809,2.092V25c.088.088.088.188.188.276l7.9,10.455a13.282,13.282,0,0,1,.815,1.09,2.633,2.633,0,0,1,.363.727,1.838,1.838,0,0,1,.188.727ZM46.819,20.543c0,.639-.276.914-.914.914H43.362V45.09a.936.936,0,0,1-.917.914H40.632a.936.936,0,0,1-.914-.914V21.455H37.174c-.639,0-.914-.276-.914-.914V18.725c0-.639.276-.914.914-.914H45.9c.639,0,.914.276.914.914v1.818Zm6.9,24.55c0,.639-.276.914-.914.914H50.99c-.639,0-.914-.276-.914-.914V25c0-.639.276-.914.914-.914h1.816a.936.936,0,0,1,.914.914ZM51.9,21.731A2.092,2.092,0,1,1,54,19.639,2.092,2.092,0,0,1,51.9,21.731Z" transform="translate(0 0)"/>
</svg>
