<svg xmlns="http://www.w3.org/2000/svg" xmlns:xlink="http://www.w3.org/1999/xlink" viewBox="0 0 152.043 61.3">
  <defs>
    <style>
      .cls-1, .cls-3 {
        fill: #fff;
      }

      .cls-2 {
        clip-path: url(#clip-path);
      }

      .cls-3, .cls-4 {
        stroke: #fcaf17;
        stroke-miterlimit: 10;
      }

      .cls-4 {
        fill: none;
      }

      .cls-5 {
        clip-path: url(#clip-path-2);
      }

      .cls-6 {
        clip-path: url(#clip-path-3);
      }

      .cls-7 {
        clip-path: url(#clip-path-4);
      }

      .cls-8 {
        clip-path: url(#clip-path-5);
      }

      .cls-9 {
        clip-path: url(#clip-path-6);
      }

      .cls-10 {
        clip-path: url(#clip-path-7);
      }

      .cls-11 {
        clip-path: url(#clip-path-8);
      }

      .cls-12 {
        clip-path: url(#clip-path-9);
      }

      .cls-13 {
        clip-path: url(#clip-path-10);
      }

      .cls-14 {
        clip-path: url(#clip-path-11);
      }

      .cls-15 {
        clip-path: url(#clip-path-12);
      }
    </style>
    <clipPath id="clip-path">
      <path id="Path_397" data-name="Path 397" d="M149.539,42.308c-4.528,1.434-8.981,3.849-11.245,8.151a18.641,18.641,0,0,0-1.434,4.075,11.47,11.47,0,0,0,1.057,8.754,12.383,12.383,0,0,0,6.415,5.434c7.471,2.943,18.716.377,22.263-7.547.906-1.962,1.283-5.962.226-7.924-1.585-3.094-6.49-5.056-10.49-4.83-4.075.151-8.075,1.811-10.339,4.528-2.264,2.641-2.264,6.188-.3,8.3a8.485,8.485,0,0,0,6.641,2.415,9.44,9.44,0,0,0,7.32-3.245c1.509-1.887,1.585-4.3-.151-5.887a5.925,5.925,0,0,0-6.339-.6c-1.887.755-3.094,2.943-1.811,4.226-.3-1.585,1.358-2.49,2.566-2.566a2.25,2.25,0,0,1,2.49.906c.453,1.132-.906,2.943-3.924,3.019a3.272,3.272,0,0,1-2.415-.83c-.679-.679-.83-2.189.3-3.547,1.057-1.358,3.472-2.415,6.038-2.49,2.49-.151,4.83.83,5.66,2.49,1.66,3.245-.377,6.415-3.019,8.3a12.069,12.069,0,0,1-9.962,2.113,10.888,10.888,0,0,1-3.4-1.283A7.289,7.289,0,0,1,142.9,61.4a8.063,8.063,0,0,1-.679-6.188c.679-2.641,1.66-5.056,4-6.717,4.679-3.321,12.075-4.453,17.433-2.415,2.943,1.132,5.509,3.547,8.453,4.453-.981-4.075-5.207-7.622-8.981-8.679a23.776,23.776,0,0,0-5.66-.755,28.614,28.614,0,0,0-7.924,1.208" transform="translate(-136.429 -41.1)"/>
    </clipPath>
    <clipPath id="clip-path-2">
      <path id="Path_400" data-name="Path 400" d="M128.258,24.826c-3.094,1.434,1.509,7.17,2.641,8.528,2.943,3.547,5.056,6.717,6.038,6.188s-.528-4.075-2.49-8.3a23.025,23.025,0,0,0-3.094-5.434,3.4,3.4,0,0,0-2.189-1.208,2.009,2.009,0,0,0-.906.226" transform="translate(-127.206 -24.6)"/>
    </clipPath>
    <clipPath id="clip-path-3">
      <path id="Path_404" data-name="Path 404" d="M140.864,11.1c-1.887,0-2.264,2.49-2.264,4a25.037,25.037,0,0,0,1.66,7.4c1.962,5.509,3.17,10.264,4.528,9.962,1.434-.3,1.132-5.132.6-10.943a45.484,45.484,0,0,0-1.057-6.415,4.8,4.8,0,0,0-.453-1.358c-.528-1.358-1.434-2.641-3.019-2.641Z" transform="translate(-138.6 -11.1)"/>
    </clipPath>
    <clipPath id="clip-path-4">
      <path id="Path_408" data-name="Path 408" d="M166.668,16.041a88.834,88.834,0,0,0-2.943,9.66c-.226.83-1.132,3.17.075,3.7,1.283.6,3.924-3.472,6.868-8.6.679-1.208,1.358-2.415,1.962-3.623a24.454,24.454,0,0,0,1.434-3.547c.453-1.736.377-3.4-1.283-4.075a3.788,3.788,0,0,0-.906-.151c-2.792,0-4.528,4.755-5.207,6.641" transform="translate(-163.186 -9.4)"/>
    </clipPath>
    <clipPath id="clip-path-5">
      <path id="Path_412" data-name="Path 412" d="M186.855,51.585c-1.283.906-7.849,4.453-6.792,6.566.679,1.283,4.226.226,8.453-1.208a58.906,58.906,0,0,0,6.943-3.547c-.83-2.415-2.34-3.4-4.151-3.4a8.208,8.208,0,0,0-4.453,1.585" transform="translate(-179.948 -50)"/>
    </clipPath>
    <clipPath id="clip-path-6">
      <path id="Path_416" data-name="Path 416" d="M156.072,3.6c-3.773.377-3.4,7.622-3.472,10.113,0,3.245.3,6.566.528,9.811.075.906-.075,5.887,1.509,6.038,1.509.075,2.566-5.585,3.623-12.528.3-1.887.453-3.773.6-5.66a21.018,21.018,0,0,0,.075-3.773,6.052,6.052,0,0,0-.377-1.585c-.377-.981-1.208-2.34-2.415-2.34a.074.074,0,0,0-.075-.075" transform="translate(-152.6 -3.6)"/>
    </clipPath>
    <clipPath id="clip-path-7">
      <path id="Path_419" data-name="Path 419" d="M7.066,40.279c0-2.113.679-3.773,2.717-3.773s2.717,1.66,2.717,3.773v2.34H7.066ZM.5,43.222v5.811c0,7.094,1.057,11.7,9.585,11.7,5.132,0,8.528-3.019,8.528-8.075,0-2.49-1.358-3.094-3.17-3.094-1.736,0-3.019.6-3.094,3.321-.075,1.509-1.057,2.868-2.415,2.868-2.566,0-2.868-2.641-2.868-5.962V47h8.226c3.17,0,3.472-1.962,3.472-4.453,0-7.32-2.189-10.943-8.754-10.943C1.557,31.524.5,36.128.5,43.222" transform="translate(-0.5 -31.599)"/>
    </clipPath>
    <clipPath id="clip-path-8">
      <path id="Path_422" data-name="Path 422" d="M28.266,45.237V41.614c0-6.113.6-7.849,2.717-7.849,1.509,0,3.094,1.132,3.094,6.717v5.283c0,4-.679,6.792-3.17,6.792-2.34,0-2.641-2.717-2.641-7.32m5.811-22.188v8.679H34a6.17,6.17,0,0,0-5.585-3.245c-5.66,0-6.717,5.132-6.717,10.868v7.471c0,5.736,1.057,10.868,6.717,10.868A6.033,6.033,0,0,0,34,54.444h.075a3.071,3.071,0,0,0,3.17,3.245c1.887,0,3.17-1.208,3.17-3.773V22.973c0-2.566-1.208-3.773-3.17-3.773-1.962.075-3.17,1.283-3.17,3.849" transform="translate(-21.7 -19.2)"/>
    </clipPath>
    <clipPath id="clip-path-9">
      <path id="Path_425" data-name="Path 425" d="M55.475,35.273V50.292c0,3.472-1.057,4.981-3.321,4.981-1.585,0-2.415-.906-2.415-2.943V35.273c0-2.566-1.208-3.773-3.17-3.773s-3.17,1.208-3.17,3.773V53.839c0,4.755,2.49,6.868,6.038,6.868a6.27,6.27,0,0,0,5.887-3.623H55.4c0,2.415,1.208,3.623,3.17,3.623,1.887,0,3.17-1.208,3.17-3.773V35.273c0-2.566-1.208-3.773-3.17-3.773-1.887,0-3.094,1.208-3.094,3.773" transform="translate(-43.4 -31.5)"/>
    </clipPath>
    <clipPath id="clip-path-10">
      <path id="Path_428" data-name="Path 428" d="M113.464,49.009V43.5c0-5.585,1.585-6.792,3.094-6.792,2.113,0,2.717,1.736,2.717,7.849v3.924c0,4.6-.3,7.32-2.641,7.32-2.49,0-3.17-2.792-3.17-6.792m.151-13.735h-.075c0-2.566-1.208-3.773-3.17-3.773s-3.17,1.208-3.17,3.773v31.7c0,2.566,1.208,3.773,3.17,3.773s3.17-1.208,3.17-3.773V57.612h.075a6.026,6.026,0,0,0,5.585,3.17c5.66,0,6.717-5.132,6.717-10.868V42.443c0-5.736-1.057-10.868-6.717-10.868a6.031,6.031,0,0,0-5.585,3.7" transform="translate(-107.2 -31.5)"/>
    </clipPath>
    <clipPath id="clip-path-11">
      <path id="Path_431" data-name="Path 431" d="M91.99,52.48c0-2.34.528-3.321,3.321-5.283L97.5,45.688v4.905c0,2.943-1.208,5.207-3.321,5.207-1.283,0-2.189-1.208-2.189-3.321M85.726,38.971c0,1.887,1.887,2.566,3.321,2.566,1.66,0,2.868-.755,3.019-2.038.226-2.189.906-3.321,3.094-3.321,1.585,0,2.415,1.283,2.415,2.792a3.221,3.221,0,0,1-2.038,2.943l-5.585,2.943c-3.321,1.736-4.453,4.151-4.453,8.377,0,5.283,2.792,7.471,6.49,7.471a6.019,6.019,0,0,0,5.736-3.472l.075-.075c0,2.717,1.585,3.547,3.321,3.547,2.038,0,3.17-.83,3.17-2.49,0-.906-.377-2.34-.377-4.151V39.726c0-4.528-.906-8.226-9.358-8.226-4.905,0-8.83,2.641-8.83,7.471" transform="translate(-85.5 -31.5)"/>
    </clipPath>
    <clipPath id="clip-path-12">
      <path id="Path_434" data-name="Path 434" d="M65.4,43.623v5.132c0,6.717.83,12.075,9.207,12.075,7.4,0,8.679-5.887,8.679-8.679,0-2.34-1.208-3.623-3.094-3.623-2.038,0-3.019.981-3.17,4.528-.075,2.189-1.207,2.868-2.34,2.868-2.038,0-2.641-1.962-2.641-6.566V43.17c0-3.7.151-6.566,2.641-6.566,1.358,0,2.34.906,2.34,2.717,0,2.566,1.057,3.547,3.17,3.547,1.736,0,3.094-1.057,3.094-3.547S81.777,31.7,74.607,31.7C66.23,31.548,65.4,36.906,65.4,43.623" transform="translate(-65.4 -31.696)"/>
    </clipPath>
  </defs>
  <g id="educap_logo" transform="translate(0.5 0.5)">
    <g id="Layer_2_2_" transform="translate(0 0)">
      <g id="Layer_1-2_2_">
        <g id="Group_191" data-name="Group 191" transform="translate(102.584 28.301)">
          <path id="Path_395" data-name="Path 395" class="cls-1" d="M149.539,42.308c-4.528,1.434-8.981,3.849-11.245,8.151a18.641,18.641,0,0,0-1.434,4.075,11.47,11.47,0,0,0,1.057,8.754,12.383,12.383,0,0,0,6.415,5.434c7.471,2.943,18.716.377,22.263-7.547.906-1.962,1.283-5.962.226-7.924-1.585-3.094-6.49-5.056-10.49-4.83-4.075.151-8.075,1.811-10.339,4.528-2.264,2.641-2.264,6.188-.3,8.3a8.485,8.485,0,0,0,6.641,2.415,9.44,9.44,0,0,0,7.32-3.245c1.509-1.887,1.585-4.3-.151-5.887a5.925,5.925,0,0,0-6.339-.6c-1.887.755-3.094,2.943-1.811,4.226-.3-1.585,1.358-2.49,2.566-2.566a2.25,2.25,0,0,1,2.49.906c.453,1.132-.906,2.943-3.924,3.019a3.272,3.272,0,0,1-2.415-.83c-.679-.679-.83-2.189.3-3.547,1.057-1.358,3.472-2.415,6.038-2.49,2.49-.151,4.83.83,5.66,2.49,1.66,3.245-.377,6.415-3.019,8.3a12.069,12.069,0,0,1-9.962,2.113,10.888,10.888,0,0,1-3.4-1.283A7.289,7.289,0,0,1,142.9,61.4a8.063,8.063,0,0,1-.679-6.188c.679-2.641,1.66-5.056,4-6.717,4.679-3.321,12.075-4.453,17.433-2.415,2.943,1.132,5.509,3.547,8.453,4.453-.981-4.075-5.207-7.622-8.981-8.679a23.776,23.776,0,0,0-5.66-.755,28.614,28.614,0,0,0-7.924,1.208" transform="translate(-136.429 -41.1)"/>
          <g id="Group_190" data-name="Group 190" class="cls-2">
            <path id="Path_396" data-name="Path 396" class="cls-3" d="M129.3,40.187,135.111,75.2l39.923-5.887L169.223,34.3Z" transform="translate(-134.68 -39.432)"/>
          </g>
          <path id="Path_398" data-name="Path 398" class="cls-4" d="M149.539,42.308c-4.528,1.434-8.981,3.849-11.245,8.151a18.641,18.641,0,0,0-1.434,4.075,11.47,11.47,0,0,0,1.057,8.754,12.383,12.383,0,0,0,6.415,5.434c7.471,2.943,18.716.377,22.263-7.547.906-1.962,1.283-5.962.226-7.924-1.585-3.094-6.49-5.056-10.49-4.83-4.075.151-8.075,1.811-10.339,4.528-2.264,2.641-2.264,6.188-.3,8.3a8.485,8.485,0,0,0,6.641,2.415,9.44,9.44,0,0,0,7.32-3.245c1.509-1.887,1.585-4.3-.151-5.887a5.925,5.925,0,0,0-6.339-.6c-1.887.755-3.094,2.943-1.811,4.226-.3-1.585,1.358-2.49,2.566-2.566a2.25,2.25,0,0,1,2.49.906c.453,1.132-.906,2.943-3.924,3.019a3.272,3.272,0,0,1-2.415-.83c-.679-.679-.83-2.189.3-3.547,1.057-1.358,3.472-2.415,6.038-2.49,2.49-.151,4.83.83,5.66,2.49,1.66,3.245-.377,6.415-3.019,8.3a12.069,12.069,0,0,1-9.962,2.113,10.888,10.888,0,0,1-3.4-1.283A7.289,7.289,0,0,1,142.9,61.4a8.063,8.063,0,0,1-.679-6.188c.679-2.641,1.66-5.056,4-6.717,4.679-3.321,12.075-4.453,17.433-2.415,2.943,1.132,5.509,3.547,8.453,4.453-.981-4.075-5.207-7.622-8.981-8.679a23.776,23.776,0,0,0-5.66-.755,28.614,28.614,0,0,0-7.924,1.208" transform="translate(-136.429 -41.1)"/>
        </g>
        <g id="Group_193" data-name="Group 193" transform="translate(95.623 15.848)">
          <path id="Path_399" data-name="Path 399" class="cls-1" d="M128.258,24.826c-3.094,1.434,1.509,7.17,2.641,8.528,2.943,3.547,5.056,6.717,6.038,6.188s-.528-4.075-2.49-8.3a23.025,23.025,0,0,0-3.094-5.434,3.4,3.4,0,0,0-2.189-1.208,2.009,2.009,0,0,0-.906.226" transform="translate(-127.206 -24.6)"/>
          <g id="Group_192" data-name="Group 192" class="cls-5" transform="translate(0 0)">
            <rect id="Rectangle_473" data-name="Rectangle 473" class="cls-3" width="20.075" height="19.622" transform="matrix(0.627, -0.779, 0.779, 0.627, -9.588, 9.348)"/>
          </g>
          <path id="Path_401" data-name="Path 401" class="cls-4" d="M128.258,24.826c-3.094,1.434,1.509,7.17,2.641,8.528,2.943,3.547,5.056,6.717,6.038,6.188s-.528-4.075-2.49-8.3a23.025,23.025,0,0,0-3.094-5.434,3.4,3.4,0,0,0-2.189-1.208,2.009,2.009,0,0,0-.906.226" transform="translate(-127.206 -24.6)"/>
        </g>
        <g id="Group_195" data-name="Group 195" transform="translate(104.223 5.66)">
          <path id="Path_402" data-name="Path 402" class="cls-1" d="M140.864,11.1c-1.887,0-2.264,2.49-2.264,4a25.037,25.037,0,0,0,1.66,7.4c1.962,5.509,3.17,10.264,4.528,9.962,1.434-.3,1.132-5.132.6-10.943a45.484,45.484,0,0,0-1.057-6.415,4.8,4.8,0,0,0-.453-1.358c-.528-1.358-1.434-2.641-3.019-2.641Z" transform="translate(-138.6 -11.1)"/>
          <g id="Group_194" data-name="Group 194" class="cls-6">
            <path id="Path_403" data-name="Path 403" class="cls-3" d="M126,15.807l11.547,19.245,15.018-9.283L141.094,6.6Z" transform="translate(-135.509 -9.996)"/>
          </g>
          <path id="Path_405" data-name="Path 405" class="cls-4" d="M140.864,11.1c-1.887,0-2.264,2.49-2.264,4a25.037,25.037,0,0,0,1.66,7.4c1.962,5.509,3.17,10.264,4.528,9.962,1.434-.3,1.132-5.132.6-10.943a45.484,45.484,0,0,0-1.057-6.415,4.8,4.8,0,0,0-.453-1.358c-.528-1.358-1.434-2.641-3.019-2.641Z" transform="translate(-138.6 -11.1)"/>
        </g>
        <g id="Group_197" data-name="Group 197" transform="translate(122.777 4.377)">
          <path id="Path_406" data-name="Path 406" class="cls-1" d="M166.668,16.041a88.834,88.834,0,0,0-2.943,9.66c-.226.83-1.132,3.17.075,3.7,1.283.6,3.924-3.472,6.868-8.6.679-1.208,1.358-2.415,1.962-3.623a24.454,24.454,0,0,0,1.434-3.547c.453-1.736.377-3.4-1.283-4.075a3.788,3.788,0,0,0-.906-.151c-2.792,0-4.528,4.755-5.207,6.641" transform="translate(-163.186 -9.4)"/>
          <g id="Group_196" data-name="Group 196" class="cls-7">
            <path id="Path_407" data-name="Path 407" class="cls-3" d="M161.936,8.3,160.2,29.582l13.358.981,1.736-21.282Z" transform="translate(-162.453 -9.13)"/>
          </g>
          <path id="Path_409" data-name="Path 409" class="cls-4" d="M166.668,16.041a88.834,88.834,0,0,0-2.943,9.66c-.226.83-1.132,3.17.075,3.7,1.283.6,3.924-3.472,6.868-8.6.679-1.208,1.358-2.415,1.962-3.623a24.454,24.454,0,0,0,1.434-3.547c.453-1.736.377-3.4-1.283-4.075a3.788,3.788,0,0,0-.906-.151c-2.792,0-4.528,4.755-5.207,6.641" transform="translate(-163.186 -9.4)"/>
        </g>
        <g id="Group_199" data-name="Group 199" transform="translate(135.428 35.018)">
          <path id="Path_410" data-name="Path 410" class="cls-1" d="M186.855,51.585c-1.283.906-7.849,4.453-6.792,6.566.679,1.283,4.226.226,8.453-1.208a58.906,58.906,0,0,0,6.943-3.547c-.83-2.415-2.34-3.4-4.151-3.4a8.208,8.208,0,0,0-4.453,1.585" transform="translate(-179.948 -50)"/>
          <g id="Group_198" data-name="Group 198" class="cls-8">
            <path id="Path_411" data-name="Path 411" class="cls-3" d="M184.9,37,173.5,51.943l12.83,14.113L197.8,51.113Z" transform="translate(-178.366 -46.811)"/>
          </g>
          <path id="Path_413" data-name="Path 413" class="cls-4" d="M186.855,51.585c-1.283.906-7.849,4.453-6.792,6.566.679,1.283,4.226.226,8.453-1.208a58.906,58.906,0,0,0,6.943-3.547c-.83-2.415-2.34-3.4-4.151-3.4a8.208,8.208,0,0,0-4.453,1.585" transform="translate(-179.948 -50)"/>
        </g>
        <g id="Group_201" data-name="Group 201" transform="translate(114.788)">
          <path id="Path_414" data-name="Path 414" class="cls-1" d="M156.072,3.6c-3.773.377-3.4,7.622-3.472,10.113,0,3.245.3,6.566.528,9.811.075.906-.075,5.887,1.509,6.038,1.509.075,2.566-5.585,3.623-12.528.3-1.887.453-3.773.6-5.66a21.018,21.018,0,0,0,.075-3.773,6.052,6.052,0,0,0-.377-1.585c-.377-.981-1.208-2.34-2.415-2.34a.074.074,0,0,0-.075-.075" transform="translate(-152.6 -3.6)"/>
          <g id="Group_200" data-name="Group 200" class="cls-9">
            <path id="Path_415" data-name="Path 415" class="cls-3" d="M144.2,5l6.566,26.112,12.3-4.3L156.426.7Z" transform="translate(-150.539 -2.889)"/>
          </g>
          <path id="Path_417" data-name="Path 417" class="cls-4" d="M156.072,3.6c-3.773.377-3.4,7.622-3.472,10.113,0,3.245.3,6.566.528,9.811.075.906-.075,5.887,1.509,6.038,1.509.075,2.566-5.585,3.623-12.528.3-1.887.453-3.773.6-5.66a21.018,21.018,0,0,0,.075-3.773,6.052,6.052,0,0,0-.377-1.585c-.377-.981-1.208-2.34-2.415-2.34a.074.074,0,0,0-.075-.075" transform="translate(-152.6 -3.6)"/>
        </g>
        <g id="Group_203" data-name="Group 203" transform="translate(0 21.13)">
          <path id="Path_418" data-name="Path 418" class="cls-1" d="M7.066,40.279c0-2.113.679-3.773,2.717-3.773s2.717,1.66,2.717,3.773v2.34H7.066ZM.5,43.222v5.811c0,7.094,1.057,11.7,9.585,11.7,5.132,0,8.528-3.019,8.528-8.075,0-2.49-1.358-3.094-3.17-3.094-1.736,0-3.019.6-3.094,3.321-.075,1.509-1.057,2.868-2.415,2.868-2.566,0-2.868-2.641-2.868-5.962V47h8.226c3.17,0,3.472-1.962,3.472-4.453,0-7.32-2.189-10.943-8.754-10.943C1.557,31.524.5,36.128.5,43.222" transform="translate(-0.5 -31.599)"/>
          <g id="Group_202" data-name="Group 202" class="cls-10">
            <rect id="Rectangle_474" data-name="Rectangle 474" class="cls-3" width="18.339" height="29.206" transform="translate(0 -0.075)"/>
          </g>
          <path id="Path_420" data-name="Path 420" class="cls-4" d="M7.066,40.279c0-2.113.679-3.773,2.717-3.773s2.717,1.66,2.717,3.773v2.34H7.066ZM.5,43.222v5.811c0,7.094,1.057,11.7,9.585,11.7,5.132,0,8.528-3.019,8.528-8.075,0-2.49-1.358-3.094-3.17-3.094-1.736,0-3.019.6-3.094,3.321-.075,1.509-1.057,2.868-2.415,2.868-2.566,0-2.868-2.641-2.868-5.962V47h8.226c3.17,0,3.472-1.962,3.472-4.453,0-7.32-2.189-10.943-8.754-10.943C1.557,31.524.5,36.128.5,43.222" transform="translate(-0.5 -31.599)"/>
        </g>
        <g id="Group_205" data-name="Group 205" transform="translate(15.999 11.773)">
          <path id="Path_421" data-name="Path 421" class="cls-1" d="M28.266,45.237V41.614c0-6.113.6-7.849,2.717-7.849,1.509,0,3.094,1.132,3.094,6.717v5.283c0,4-.679,6.792-3.17,6.792-2.34,0-2.641-2.717-2.641-7.32m5.811-22.188v8.679H34a6.17,6.17,0,0,0-5.585-3.245c-5.66,0-6.717,5.132-6.717,10.868v7.471c0,5.736,1.057,10.868,6.717,10.868A6.033,6.033,0,0,0,34,54.444h.075a3.071,3.071,0,0,0,3.17,3.245c1.887,0,3.17-1.208,3.17-3.773V22.973c0-2.566-1.208-3.773-3.17-3.773-1.962.075-3.17,1.283-3.17,3.849" transform="translate(-21.7 -19.2)"/>
          <g id="Group_204" data-name="Group 204" class="cls-11">
            <rect id="Rectangle_475" data-name="Rectangle 475" class="cls-3" width="18.641" height="38.414" transform="translate(0 0.075)"/>
          </g>
          <path id="Path_423" data-name="Path 423" class="cls-4" d="M28.266,45.237V41.614c0-6.113.6-7.849,2.717-7.849,1.509,0,3.094,1.132,3.094,6.717v5.283c0,4-.679,6.792-3.17,6.792-2.34,0-2.641-2.717-2.641-7.32m5.811-22.188v8.679H34a6.17,6.17,0,0,0-5.585-3.245c-5.66,0-6.717,5.132-6.717,10.868v7.471c0,5.736,1.057,10.868,6.717,10.868A6.033,6.033,0,0,0,34,54.444h.075a3.071,3.071,0,0,0,3.17,3.245c1.887,0,3.17-1.208,3.17-3.773V22.973c0-2.566-1.208-3.773-3.17-3.773-1.962.075-3.17,1.283-3.17,3.849" transform="translate(-21.7 -19.2)"/>
        </g>
        <g id="Group_207" data-name="Group 207" transform="translate(32.376 21.056)">
          <path id="Path_424" data-name="Path 424" class="cls-1" d="M55.475,35.273V50.292c0,3.472-1.057,4.981-3.321,4.981-1.585,0-2.415-.906-2.415-2.943V35.273c0-2.566-1.208-3.773-3.17-3.773s-3.17,1.208-3.17,3.773V53.839c0,4.755,2.49,6.868,6.038,6.868a6.27,6.27,0,0,0,5.887-3.623H55.4c0,2.415,1.208,3.623,3.17,3.623,1.887,0,3.17-1.208,3.17-3.773V35.273c0-2.566-1.208-3.773-3.17-3.773-1.887,0-3.094,1.208-3.094,3.773" transform="translate(-43.4 -31.5)"/>
          <g id="Group_206" data-name="Group 206" class="cls-12" transform="translate(0 0)">
            <rect id="Rectangle_476" data-name="Rectangle 476" class="cls-3" width="18.263" height="29.206" transform="translate(0.075)"/>
          </g>
          <path id="Path_426" data-name="Path 426" class="cls-4" d="M55.475,35.273V50.292c0,3.472-1.057,4.981-3.321,4.981-1.585,0-2.415-.906-2.415-2.943V35.273c0-2.566-1.208-3.773-3.17-3.773s-3.17,1.208-3.17,3.773V53.839c0,4.755,2.49,6.868,6.038,6.868a6.27,6.27,0,0,0,5.887-3.623H55.4c0,2.415,1.208,3.623,3.17,3.623,1.887,0,3.17-1.208,3.17-3.773V35.273c0-2.566-1.208-3.773-3.17-3.773-1.887,0-3.094,1.208-3.094,3.773" transform="translate(-43.4 -31.5)"/>
        </g>
        <g id="Group_209" data-name="Group 209" transform="translate(80.525 21.056)">
          <path id="Path_427" data-name="Path 427" class="cls-1" d="M113.464,49.009V43.5c0-5.585,1.585-6.792,3.094-6.792,2.113,0,2.717,1.736,2.717,7.849v3.924c0,4.6-.3,7.32-2.641,7.32-2.49,0-3.17-2.792-3.17-6.792m.151-13.735h-.075c0-2.566-1.208-3.773-3.17-3.773s-3.17,1.208-3.17,3.773v31.7c0,2.566,1.208,3.773,3.17,3.773s3.17-1.208,3.17-3.773V57.612h.075a6.026,6.026,0,0,0,5.585,3.17c5.66,0,6.717-5.132,6.717-10.868V42.443c0-5.736-1.057-10.868-6.717-10.868a6.031,6.031,0,0,0-5.585,3.7" transform="translate(-107.2 -31.5)"/>
          <g id="Group_208" data-name="Group 208" class="cls-13" transform="translate(0 0)">
            <rect id="Rectangle_477" data-name="Rectangle 477" class="cls-3" width="18.641" height="39.244" transform="translate(0)"/>
          </g>
          <path id="Path_429" data-name="Path 429" class="cls-4" d="M113.464,49.009V43.5c0-5.585,1.585-6.792,3.094-6.792,2.113,0,2.717,1.736,2.717,7.849v3.924c0,4.6-.3,7.32-2.641,7.32-2.49,0-3.17-2.792-3.17-6.792m.151-13.735h-.075c0-2.566-1.208-3.773-3.17-3.773s-3.17,1.208-3.17,3.773v31.7c0,2.566,1.208,3.773,3.17,3.773s3.17-1.208,3.17-3.773V57.612h.075a6.026,6.026,0,0,0,5.585,3.17c5.66,0,6.717-5.132,6.717-10.868V42.443c0-5.736-1.057-10.868-6.717-10.868a6.031,6.031,0,0,0-5.585,3.7" transform="translate(-107.2 -31.5)"/>
        </g>
        <g id="Group_211" data-name="Group 211" transform="translate(64.149 21.056)">
          <path id="Path_430" data-name="Path 430" class="cls-1" d="M91.99,52.48c0-2.34.528-3.321,3.321-5.283L97.5,45.688v4.905c0,2.943-1.208,5.207-3.321,5.207-1.283,0-2.189-1.208-2.189-3.321M85.726,38.971c0,1.887,1.887,2.566,3.321,2.566,1.66,0,2.868-.755,3.019-2.038.226-2.189.906-3.321,3.094-3.321,1.585,0,2.415,1.283,2.415,2.792a3.221,3.221,0,0,1-2.038,2.943l-5.585,2.943c-3.321,1.736-4.453,4.151-4.453,8.377,0,5.283,2.792,7.471,6.49,7.471a6.019,6.019,0,0,0,5.736-3.472l.075-.075c0,2.717,1.585,3.547,3.321,3.547,2.038,0,3.17-.83,3.17-2.49,0-.906-.377-2.34-.377-4.151V39.726c0-4.528-.906-8.226-9.358-8.226-4.905,0-8.83,2.641-8.83,7.471" transform="translate(-85.5 -31.5)"/>
          <g id="Group_210" data-name="Group 210" class="cls-14">
            <rect id="Rectangle_478" data-name="Rectangle 478" class="cls-3" width="18.792" height="29.206" transform="translate(-0.075 0)"/>
          </g>
          <path id="Path_432" data-name="Path 432" class="cls-4" d="M91.99,52.48c0-2.34.528-3.321,3.321-5.283L97.5,45.688v4.905c0,2.943-1.208,5.207-3.321,5.207-1.283,0-2.189-1.208-2.189-3.321M85.726,38.971c0,1.887,1.887,2.566,3.321,2.566,1.66,0,2.868-.755,3.019-2.038.226-2.189.906-3.321,3.094-3.321,1.585,0,2.415,1.283,2.415,2.792a3.221,3.221,0,0,1-2.038,2.943l-5.585,2.943c-3.321,1.736-4.453,4.151-4.453,8.377,0,5.283,2.792,7.471,6.49,7.471a6.019,6.019,0,0,0,5.736-3.472l.075-.075c0,2.717,1.585,3.547,3.321,3.547,2.038,0,3.17-.83,3.17-2.49,0-.906-.377-2.34-.377-4.151V39.726c0-4.528-.906-8.226-9.358-8.226-4.905,0-8.83,2.641-8.83,7.471" transform="translate(-85.5 -31.5)"/>
        </g>
        <g id="Group_213" data-name="Group 213" transform="translate(48.979 21.204)">
          <path id="Path_433" data-name="Path 433" class="cls-1" d="M65.4,43.623v5.132c0,6.717.83,12.075,9.207,12.075,7.4,0,8.679-5.887,8.679-8.679,0-2.34-1.208-3.623-3.094-3.623-2.038,0-3.019.981-3.17,4.528-.075,2.189-1.207,2.868-2.34,2.868-2.038,0-2.641-1.962-2.641-6.566V43.17c0-3.7.151-6.566,2.641-6.566,1.358,0,2.34.906,2.34,2.717,0,2.566,1.057,3.547,3.17,3.547,1.736,0,3.094-1.057,3.094-3.547S81.777,31.7,74.607,31.7C66.23,31.548,65.4,36.906,65.4,43.623" transform="translate(-65.4 -31.696)"/>
          <g id="Group_212" data-name="Group 212" class="cls-15" transform="translate(0 0)">
            <rect id="Rectangle_479" data-name="Rectangle 479" class="cls-3" width="17.962" height="29.206" transform="translate(0 -0.148)"/>
          </g>
          <path id="Path_435" data-name="Path 435" class="cls-4" d="M65.4,43.623v5.132c0,6.717.83,12.075,9.207,12.075,7.4,0,8.679-5.887,8.679-8.679,0-2.34-1.208-3.623-3.094-3.623-2.038,0-3.019.981-3.17,4.528-.075,2.189-1.207,2.868-2.34,2.868-2.038,0-2.641-1.962-2.641-6.566V43.17c0-3.7.151-6.566,2.641-6.566,1.358,0,2.34.906,2.34,2.717,0,2.566,1.057,3.547,3.17,3.547,1.736,0,3.094-1.057,3.094-3.547S81.777,31.7,74.607,31.7C66.23,31.548,65.4,36.906,65.4,43.623" transform="translate(-65.4 -31.696)"/>
        </g>
      </g>
    </g>
  </g>
</svg>
