<svg xmlns="http://www.w3.org/2000/svg" width="224.883" height="224.883" viewBox="0 0 224.883 224.883">
  <path id="Caminho_494" data-name="Caminho 494" d="M764.942,726.951v-186.9Q761,525,745.951,521.058h-186.9c-9.714,2.425-15.882,8.593-18.99,17.991v187.9q3.883,15.106,18.99,18.99h186.9C755.989,743.319,762.341,737.01,764.942,726.951Zm-157.19-64.974c0,15.153-.107,30.307.079,45.458.043,3.51-.5,4.981-4.512,4.82-8.645-.347-17.315-.225-25.97-.04-2.867.061-3.564-.837-3.556-3.616q.139-46.956-.026-93.913c-.015-3.249,1-3.806,3.931-3.742,8.654.189,17.319.216,25.972-.009,3.233-.084,4.2.742,4.164,4.086C607.648,630.672,607.752,646.325,607.752,661.977Zm-17.378-70.005A20.546,20.546,0,0,1,570.237,571.5c0-10.873,9.448-20.268,20.4-20.282a20.581,20.581,0,0,1,20.308,20.816A20.336,20.336,0,0,1,590.374,591.972ZM727.8,712.2c-8.822-.14-17.652-.207-26.47.025-3.294.087-4.189-.834-4.16-4.141q.241-27.719.035-55.441c-.058-8.591-6.367-15.744-14.255-16.687a17.121,17.121,0,0,0-18.45,12,19.92,19.92,0,0,0-.618,6.41c-.024,17.815-.109,35.631.069,53.444.035,3.443-.776,4.538-4.342,4.427-8.649-.272-17.314-.19-25.969-.029-2.68.05-3.711-.442-3.7-3.45q.173-47.2.026-94.4c-.006-2.443.412-3.475,3.209-3.416,9.153.192,18.314.167,27.468.013,2.668-.045,3.471.81,3.273,3.386-.212,2.761-.048,5.551-.048,9.413,12.083-13.635,26.088-17.966,39.981-13.017,16.18,5.763,26.716,19.211,27.043,35.789.411,20.8.146,41.618.318,62.426C731.234,711.691,730.317,712.242,727.8,712.2Z" transform="translate(-540.059 -521.058)" fill="#f8f8f8"/>
</svg>
