<svg xmlns="http://www.w3.org/2000/svg" xmlns:xlink="http://www.w3.org/1999/xlink" viewBox="0 0 263.006 182.711">
  <defs>
    <style>
      .cls-1 {
        fill: none;
      }

      .cls-2 {
        clip-path: url(#clip-path);
      }

      .cls-3 {
        fill: #0f2b92;
      }

      .cls-4 {
        fill: #c6c6c6;
      }
    </style>
    <clipPath id="clip-path">
      <path id="Path_3048" data-name="Path 3048" class="cls-1" d="M0,116.267H263.006V-66.444H0Z" transform="translate(0 66.444)"/>
    </clipPath>
  </defs>
  <g id="Group_6466" data-name="Group 6466" transform="translate(0 66.444)">
    <g id="Group_6456" data-name="Group 6456" class="cls-2" transform="translate(0 -66.444)">
      <g id="Group_6455" data-name="Group 6455" transform="translate(20.584 27.882)">
        <path id="Path_3047" data-name="Path 3047" class="cls-3" d="M4.357,0S-2.49,0-2.49,6.847v132.62s0,6.847,6.847,6.847H207.816s6.844,0,6.844-6.847V6.847S214.66,0,207.816,0Z" transform="translate(2.49)"/>
      </g>
    </g>
    <path id="Path_3049" data-name="Path 3049" class="cls-4" d="M11.824,66h193.3V-52.121H11.824Z" transform="translate(20.69 25.063)"/>
    <g id="Group_6458" data-name="Group 6458" class="cls-2" transform="translate(0 -66.444)">
      <g id="Group_6457" data-name="Group 6457" transform="translate(0 166.219)">
        <path id="Path_3050" data-name="Path 3050" class="cls-3" d="M1.75,0A2.693,2.693,0,0,0-1,2.75V13.741a2.693,2.693,0,0,0,2.75,2.75H254.571a2.693,2.693,0,0,0,2.75-2.75V2.75A2.693,2.693,0,0,0,254.571,0Z" transform="translate(1)"/>
      </g>
    </g>
    <path id="Path_3052" data-name="Path 3052" class="cls-3" d="M0,2.249H258.321V-6H0Z" transform="translate(0 105.771)"/>
    <path id="Path_3053" data-name="Path 3053" class="cls-4" d="M72.163-65.121h60.348V56.084H72.163Z" transform="translate(126.274 2.315)"/>
    <g id="Group_6460" data-name="Group 6460" class="cls-2" transform="translate(0 -66.444)">
      <g id="Group_6459" data-name="Group 6459" transform="translate(194.093 0)">
        <path id="Path_3054" data-name="Path 3054" class="cls-3" d="M38,0H-12.532a9.186,9.186,0,0,0-9.187,9.187V118.351a9.186,9.186,0,0,0,9.187,9.187H38a9.186,9.186,0,0,0,9.187-9.187V9.187A9.186,9.186,0,0,0,38,0M12.737,123.468a5.981,5.981,0,1,1,5.981-5.981,5.981,5.981,0,0,1-5.981,5.981M41.45,103.991A3.451,3.451,0,0,1,38,107.439H-12.532a3.451,3.451,0,0,1-3.446-3.448V9.187a3.451,3.451,0,0,1,3.446-3.446H38A3.451,3.451,0,0,1,41.45,9.187Z" transform="translate(21.719)"/>
      </g>
    </g>
  </g>
</svg>
