<svg xmlns="http://www.w3.org/2000/svg" xmlns:xlink="http://www.w3.org/1999/xlink" viewBox="0 0 183.537 182.24">
  <defs>
    <style>
      .cls-1, .cls-4, .cls-5 {
        fill: none;
      }

      .cls-2 {
        clip-path: url(#clip-path);
      }

      .cls-3 {
        fill: #c6c6c6;
      }

      .cls-4, .cls-5 {
        stroke: #0f2b92;
        stroke-linejoin: round;
        stroke-width: 10px;
      }

      .cls-5 {
        stroke-linecap: round;
      }
    </style>
    <clipPath id="clip-path">
      <path id="Path_3046" data-name="Path 3046" class="cls-1" d="M0,126.04H183.537V-56.2H0Z" transform="translate(0 56.2)"/>
    </clipPath>
  </defs>
  <g id="Group_6467" data-name="Group 6467" transform="translate(0 56.2)">
    <g id="Group_6453" data-name="Group 6453" class="cls-2" transform="translate(0 -56.2)">
      <g id="Group_6449" data-name="Group 6449" transform="translate(6.485 6.485)">
        <path id="Path_3042" data-name="Path 3042" class="cls-3" d="M115.275,57.189a12.53,12.53,0,1,1-4.54-24.645,9.226,9.226,0,0,1,4.216,0A83.6,83.6,0,0,0,97.116,1.739,35.37,35.37,0,0,1,95.17,5.306,12.705,12.705,0,0,1,77.66,6.927a12.705,12.705,0,0,1-1.621-17.511,12.7,12.7,0,0,1,3.243-2.594A92.139,92.139,0,0,0,45.881-25.5a16.429,16.429,0,0,1,.649,4.216A12.662,12.662,0,0,1,33.883-8.638,12.46,12.46,0,0,1,21.237-21.284a16.429,16.429,0,0,1,.649-4.216,78.361,78.361,0,0,0-33.4,12.322,12.7,12.7,0,0,1,3.243,2.594A12.1,12.1,0,0,1-9.893,6.927,12.1,12.1,0,0,1-27.4,5.306,7.73,7.73,0,0,1-29.35,1.739,86.287,86.287,0,0,0-47.184,32.544a9.255,9.255,0,0,1,4.216,0A12.514,12.514,0,0,1-32.917,47.137,12.514,12.514,0,0,1-47.509,57.189c-1.3-.324-2.918-.649-3.891-1.621v2.918a88.35,88.35,0,0,0,6.161,32.1A29.234,29.234,0,0,1-42,87.67c5.837-3.567,13.619-1.3,17.186,4.54s1.3,13.619-4.54,17.186a9.218,9.218,0,0,1-3.891,1.3A88.916,88.916,0,0,0-6,133.717a18.979,18.979,0,0,1,.649-4.216c2.27-6.485,9.4-9.728,16.214-7.458,6.485,2.27,9.728,9.4,7.458,16.214a13.39,13.39,0,0,1-2.27,3.567,82.715,82.715,0,0,0,35.67,0,13.39,13.39,0,0,1-2.27-3.567A12.619,12.619,0,1,1,73.12,129.5a9.577,9.577,0,0,1,.649,4.216,84.66,84.66,0,0,0,27.239-23.023,18.281,18.281,0,0,1-3.891-1.3A12.569,12.569,0,1,1,109.762,87.67a9.2,9.2,0,0,1,3.243,2.918,88.35,88.35,0,0,0,6.161-32.1V55.568a5.37,5.37,0,0,1-3.891,1.621" transform="translate(51.4 25.5)"/>
      </g>
      <g id="Group_6450" data-name="Group 6450" transform="translate(6.485 6.485)">
        <path id="Path_3043" data-name="Path 3043" class="cls-4" d="M115.275,57.189a12.53,12.53,0,1,1-4.54-24.645,9.226,9.226,0,0,1,4.216,0A83.6,83.6,0,0,0,97.116,1.739,35.37,35.37,0,0,1,95.17,5.306,12.705,12.705,0,0,1,77.66,6.927a12.705,12.705,0,0,1-1.621-17.511,12.7,12.7,0,0,1,3.243-2.594A92.139,92.139,0,0,0,45.881-25.5a16.429,16.429,0,0,1,.649,4.216A12.662,12.662,0,0,1,33.883-8.638,12.46,12.46,0,0,1,21.237-21.284a16.429,16.429,0,0,1,.649-4.216,78.361,78.361,0,0,0-33.4,12.322,12.7,12.7,0,0,1,3.243,2.594A12.1,12.1,0,0,1-9.893,6.927,12.1,12.1,0,0,1-27.4,5.306,7.73,7.73,0,0,1-29.35,1.739,86.287,86.287,0,0,0-47.184,32.544a9.255,9.255,0,0,1,4.216,0A12.514,12.514,0,0,1-32.917,47.137,12.514,12.514,0,0,1-47.509,57.189c-1.3-.324-2.918-.649-3.891-1.621v2.918a88.35,88.35,0,0,0,6.161,32.1A29.234,29.234,0,0,1-42,87.67c5.837-3.567,13.619-1.3,17.186,4.54s1.3,13.619-4.54,17.186a9.218,9.218,0,0,1-3.891,1.3A88.916,88.916,0,0,0-6,133.717a18.979,18.979,0,0,1,.649-4.216c2.27-6.485,9.4-9.728,16.214-7.458,6.485,2.27,9.728,9.4,7.458,16.214a13.39,13.39,0,0,1-2.27,3.567,82.715,82.715,0,0,0,35.67,0,13.39,13.39,0,0,1-2.27-3.567A12.619,12.619,0,1,1,73.12,129.5a9.577,9.577,0,0,1,.649,4.216,84.66,84.66,0,0,0,27.239-23.023,18.281,18.281,0,0,1-3.891-1.3A12.569,12.569,0,1,1,109.762,87.67a9.2,9.2,0,0,1,3.243,2.918,88.35,88.35,0,0,0,6.161-32.1V55.568A5.37,5.37,0,0,1,115.275,57.189Z" transform="translate(51.4 25.5)"/>
      </g>
      <g id="Group_6451" data-name="Group 6451" transform="translate(46.695 45.398)">
        <path id="Path_3044" data-name="Path 3044" class="cls-3" d="M31.4,0A45.4,45.4,0,1,1-14,45.4,45.4,45.4,0,0,1,31.4,0m0,25.942A19.456,19.456,0,1,1,11.942,45.4,19.455,19.455,0,0,1,31.4,25.942" transform="translate(14)"/>
      </g>
      <g id="Group_6452" data-name="Group 6452" transform="translate(46.695 45.398)">
        <path id="Path_3045" data-name="Path 3045" class="cls-5" d="M31.4,0A45.4,45.4,0,1,1-14,45.4,45.4,45.4,0,0,1,31.4,0Zm0,25.942A19.456,19.456,0,1,1,11.942,45.4,19.455,19.455,0,0,1,31.4,25.942Z" transform="translate(14)"/>
      </g>
    </g>
  </g>
</svg>
