<svg xmlns="http://www.w3.org/2000/svg" viewBox="0 0 215.047 76.665">
  <defs>
    <style>
      .cls-1 {
        fill: #fff;
      }
    </style>
  </defs>
  <g id="PS-Logotipo" transform="translate(-29.7 -33.1)">
    <path id="Path_202" data-name="Path 202" class="cls-1" d="M310.7,121.783c-1.7,0-3.078-.879-3.078-3.242l-7.035.165c-.33,6.54,4.726,9.343,10.167,9.343,5.661,0,9.947-3.133,9.947-8.189,0-5.166-2.913-6.98-7.144-8.463-4.452-1.539-5.166-2.253-5.166-3.627,0-1.1.989-1.7,2.2-1.7,1.594,0,2.528.989,2.528,3.242l7.035-.165c.275-6.595-4.287-9.343-9.508-9.343-5.166,0-9.892,2.8-9.892,8.518,0,4.726,3.188,7.035,7.144,8.3,4.177,1.374,5.166,2.253,5.166,3.407.055,1.209-.824,1.759-2.363,1.759Zm13.849,5.716h16.157v-6.32h-8.573v-4.4h7.749v-6.1h-7.749V106.67h8.573v-6.32H324.549V127.5Zm29.732-10.167,4.232,10.167h8.134s-2.8-6.815-4.342-9.947a4.723,4.723,0,0,0-1.923-2.308,7.6,7.6,0,0,0,5-7.364c0-6.32-5.386-7.584-12.2-7.584-4.067,0-7.694.055-7.694.055v27.094h7.639V117.276h1.154Zm3.517-8.189c0,2.528-2.088,2.913-3.792,2.913a2.8,2.8,0,0,1-.824-.055V106.34a3.52,3.52,0,0,1,1.044-.055c2.473,0,3.572.989,3.572,2.858Z" transform="translate(-122.009 -30.044)"/>
    <path id="Path_203" data-name="Path 203" class="cls-1" d="M37.384,127.5v-8.793s.659.055,2.088.055c6.375,0,10.552-3.682,10.552-9.068,0-8.518-7.2-9.288-13.739-9.288-3.188,0-6.485.055-6.485.055v27.094h7.584Zm0-20.774a9.329,9.329,0,0,1,1.044-.055c2.8,0,3.957,1.1,3.957,3.023,0,2.363-1.7,3.188-3.682,3.188-.824,0-1.319-.055-1.319-.055v-6.1ZM62,117.331,66.237,127.5H74.37s-2.8-6.815-4.342-9.947a4.723,4.723,0,0,0-1.923-2.308,7.6,7.6,0,0,0,5-7.364c0-6.32-5.386-7.584-12.2-7.584-4.067,0-7.694.055-7.694.055v27.094h7.639V117.276H62Zm3.517-8.189c0,2.528-2.088,2.913-3.792,2.913a2.8,2.8,0,0,1-.824-.055V106.34a3.52,3.52,0,0,1,1.044-.055c2.528,0,3.572.989,3.572,2.858ZM77.063,127.5H93.22v-6.32H84.647v-4.4H92.4v-6.1H84.647V106.67H93.22v-6.32H77.063V127.5Zm39.844-18.3c.165-6.43-4.287-9.343-9.563-9.343-5.166,0-10,2.913-10.222,8.848-.11,2.748-.055,6.21,0,10.332.11,5.661,4.177,9.068,10,9.068,6.21,0,9.947-3.792,9.947-9.343l-7.035-.165c0,2.2-1.319,3.242-2.693,3.242-1.539,0-2.473-1.044-2.583-3.133-.055-2.913-.11-7.035,0-9.617.055-1.924,1.154-2.913,2.583-2.913,1.484,0,2.473,1.044,2.473,3.242l7.089-.22Zm11.046-8.793h-7.639V127.5h7.639V100.4Zm14.4,21.378c-1.7,0-3.078-.879-3.078-3.242l-7.035.165c-.33,6.54,4.726,9.343,10.167,9.343,5.661,0,9.947-3.133,9.947-8.189,0-5.166-2.913-6.98-7.144-8.463-4.452-1.539-5.166-2.253-5.166-3.627,0-1.1.989-1.7,2.2-1.7,1.594,0,2.528.989,2.528,3.242l7.035-.165c.275-6.595-4.287-9.343-9.508-9.343-5.166,0-9.892,2.8-9.892,8.518,0,4.726,3.188,7.035,7.144,8.3,4.177,1.374,5.166,2.253,5.166,3.407,0,1.209-.879,1.759-2.363,1.759Zm26.874,5.716h7.8L170.82,100.4H159.609V102l-6.1,25.5h7.419l.934-4.781h6.485l.879,4.781Zm-4.561-18.905.55-3.517.55,3.517,1.429,8.024h-4.177l1.649-8.024Z" transform="translate(-0.045 -30.044)"/>
    <path id="Path_204" data-name="Path 204" class="cls-1" d="M37.339,33.7H29.7V60.8h7.639V33.7Zm19.235,0V48.873L55.64,46.29,48.935,33.7H42.34V60.8h7.254V46.51l1.1,3.133L57.124,60.8h6.7V33.7Zm21.6,21.378c-1.7,0-3.078-.879-3.078-3.242l-7.035.165c-.33,6.54,4.726,9.343,10.167,9.343,5.661,0,9.947-3.133,9.947-8.189,0-5.166-2.913-6.98-7.144-8.463-4.452-1.539-5.166-2.253-5.166-3.627,0-1.1.989-1.7,2.2-1.7,1.594,0,2.528.989,2.528,3.242l7.035-.165c.275-6.595-4.287-9.343-9.508-9.343-5.166,0-9.892,2.8-9.892,8.518,0,4.726,3.188,7.035,7.144,8.3,4.177,1.374,5.166,2.253,5.166,3.462s-.879,1.7-2.363,1.7ZM95.209,60.8h7.639V40.025h6.045V33.7H89.109v6.32h6.045V60.8ZM119.39,33.7h-7.639V60.8h7.639V33.7ZM128.348,60.8h7.639V40.025h6.045V33.7H122.248v6.32h6.045V60.8ZM157.2,33.7c.055,2.528.055,16.047,0,18.3-.055,1.924-.989,3.078-2.583,3.078-1.539,0-2.693-1.154-2.693-3.078-.055-2.418-.055-15.938,0-18.3h-7.309s-.11,10.332,0,18.8c.055,5.88,4.671,8.848,9.837,8.848,5.276,0,9.947-3.078,10.057-8.793.11-9.233,0-18.905,0-18.905H157.2ZM173.083,60.8h7.639V40.025h6.045V33.7H166.983v6.32h6.045V60.8Zm15.938-18.356c-.11,2.968-.11,6.815,0,9.563.275,6.21,4.671,9.343,10.222,9.343s10.112-3.133,10.277-9.288c.055-2.913.055-7.144,0-9.672-.165-6.1-4.671-9.288-10.222-9.288-5.606.055-10.057,3.242-10.277,9.343Zm7.639,9.782c-.165-2.418-.165-7.8,0-10.112.11-1.869,1.154-2.693,2.638-2.693a2.426,2.426,0,0,1,2.583,2.693c.11,2.528.11,7.914,0,10.112-.11,2.033-1.154,2.858-2.638,2.858s-2.473-.824-2.583-2.858Z"/>
    <path id="Path_205" data-name="Path 205" class="cls-1" d="M299.5,161.1v6.32h66.773V161.1Z" transform="translate(-121.526 -57.655)"/>
  </g>
</svg>
